HIERARCHY
ROOT Hips
{
	OFFSET 0.000000 97.167313 0.000000
	CHANNELS 6 Xposition Yposition Zposition Xrotation Yrotation Zrotation
	JOINT Spine
	{
		OFFSET 0.000000 13.784798 0.064400
		CHANNELS 3 Xrotation Yrotation Zrotation
		JOINT Spine1
		{
			OFFSET 0.000000 12.037903 0.404700
			CHANNELS 3 Xrotation Yrotation Zrotation
			JOINT Spine2
			{
				OFFSET 0.000000 17.795601 0.420200
				CHANNELS 3 Xrotation Yrotation Zrotation
				JOINT Neck
				{
					OFFSET 0.000000 39.131302 11.954600
					CHANNELS 3 Xrotation Yrotation Zrotation
					JOINT Head
					{
						OFFSET 0.000000 14.456192 15.627699
						CHANNELS 3 Xrotation Yrotation Zrotation
						JOINT HeadTop_End
						{
							OFFSET 0.000000 15.703506 7.603401
							CHANNELS 3 Xrotation Yrotation Zrotation
							End Site
							{
								OFFSET 0.000000 17.447403 0.000000
							}
						}
					}
				}
				JOINT LeftShoulder
				{
					OFFSET 17.399500 24.608795 1.168800
					CHANNELS 3 Xrotation Yrotation Zrotation
					JOINT LeftArm
					{
						OFFSET 18.980635 5.765305 1.818600
						CHANNELS 3 Xrotation Yrotation Zrotation
						JOINT LeftForeArm
						{
							OFFSET 49.290169 0.000000 0.000000
							CHANNELS 3 Xrotation Yrotation Zrotation
							JOINT LeftHand
							{
								OFFSET 31.562012 0.000000 0.000000
								CHANNELS 3 Xrotation Yrotation Zrotation
								JOINT LeftHandThumb1
								{
									OFFSET 6.133995 -4.388519 7.076070
									CHANNELS 3 Xrotation Yrotation Zrotation
									JOINT LeftHandThumb2
									{
										OFFSET 6.037666 -3.485840 3.485847
										CHANNELS 3 Xrotation Yrotation Zrotation
										JOINT LeftHandThumb3
										{
											OFFSET 6.496506 -3.750763 3.750761
											CHANNELS 3 Xrotation Yrotation Zrotation
											JOINT LeftHandThumb4
											{
												OFFSET 5.616882 -3.242905 3.242910
												CHANNELS 3 Xrotation Yrotation Zrotation
												End Site
												{
													OFFSET -1.254608 7.132141 0.375429
												}
											}
										}
									}
								}
								JOINT LeftHandPinky1
								{
									OFFSET 18.920792 -0.453171 -11.426712
									CHANNELS 3 Xrotation Yrotation Zrotation
									JOINT LeftHandPinky2
									{
										OFFSET 4.919586 0.000000 0.000000
										CHANNELS 3 Xrotation Yrotation Zrotation
										JOINT LeftHandPinky3
										{
											OFFSET 5.233047 0.000000 0.000000
											CHANNELS 3 Xrotation Yrotation Zrotation
											JOINT LeftHandPinky4
											{
												OFFSET 5.571716 0.000000 0.000000
												CHANNELS 3 Xrotation Yrotation Zrotation
												End Site
												{
													OFFSET -3.459808 4.342407 -0.466164
												}
											}
										}
									}
								}
								JOINT LeftHandRing1
								{
									OFFSET 22.726120 -0.094986 -6.500475
									CHANNELS 3 Xrotation Yrotation Zrotation
									JOINT LeftHandRing2
									{
										OFFSET 6.408615 0.000000 0.000000
										CHANNELS 3 Xrotation Yrotation Zrotation
										JOINT LeftHandRing3
										{
											OFFSET 6.150223 0.000000 0.000000
											CHANNELS 3 Xrotation Yrotation Zrotation
											JOINT LeftHandRing4
											{
												OFFSET 6.145386 0.000000 0.000000
												CHANNELS 3 Xrotation Yrotation Zrotation
												End Site
												{
													OFFSET -3.671402 4.923981 -0.202372
												}
											}
										}
									}
								}
								JOINT LeftHandMiddle1
								{
									OFFSET 23.373947 0.000000 0.000001
									CHANNELS 3 Xrotation Yrotation Zrotation
									JOINT LeftHandMiddle2
									{
										OFFSET 6.996567 0.000000 0.000000
										CHANNELS 3 Xrotation Yrotation Zrotation
										JOINT LeftHandMiddle3
										{
											OFFSET 7.015945 0.000000 0.000000
											CHANNELS 3 Xrotation Yrotation Zrotation
											JOINT LeftHandMiddle4
											{
												OFFSET 7.721573 0.000000 0.000000
												CHANNELS 3 Xrotation Yrotation Zrotation
												End Site
												{
													OFFSET -4.651108 6.158463 0.251582
												}
											}
										}
									}
								}
								JOINT LeftHandIndex1
								{
									OFFSET 21.310577 -0.490082 6.209344
									CHANNELS 3 Xrotation Yrotation Zrotation
									JOINT LeftHandIndex2
									{
										OFFSET 7.536453 0.000000 0.000000
										CHANNELS 3 Xrotation Yrotation Zrotation
										JOINT LeftHandIndex3
										{
											OFFSET 7.512344 0.000000 0.000000
											CHANNELS 3 Xrotation Yrotation Zrotation
											JOINT LeftHandIndex4
											{
												OFFSET 10.212402 0.000000 0.000001
												CHANNELS 3 Xrotation Yrotation Zrotation
												End Site
												{
													OFFSET -5.180801 8.690506 1.388433
												}
											}
										}
									}
								}
							}
						}
					}
				}
				JOINT RightShoulder
				{
					OFFSET -17.399500 24.608795 1.168800
					CHANNELS 3 Xrotation Yrotation Zrotation
					JOINT RightArm
					{
						OFFSET -18.980635 5.765305 1.818600
						CHANNELS 3 Xrotation Yrotation Zrotation
						JOINT RightForeArm
						{
							OFFSET -49.290169 0.000000 0.000000
							CHANNELS 3 Xrotation Yrotation Zrotation
							JOINT RightHand
							{
								OFFSET -31.562012 0.000000 0.000000
								CHANNELS 3 Xrotation Yrotation Zrotation
								JOINT RightHandThumb1
								{
									OFFSET -6.133995 -4.388519 7.076070
									CHANNELS 3 Xrotation Yrotation Zrotation
									JOINT RightHandThumb2
									{
										OFFSET -6.037666 -3.485840 3.485847
										CHANNELS 3 Xrotation Yrotation Zrotation
										JOINT RightHandThumb3
										{
											OFFSET -6.496506 -3.750763 3.750761
											CHANNELS 3 Xrotation Yrotation Zrotation
											JOINT RightHandThumb4
											{
												OFFSET -5.616882 -3.242905 3.242910
												CHANNELS 3 Xrotation Yrotation Zrotation
												End Site
												{
													OFFSET 1.254608 7.132141 0.375429
												}
											}
										}
									}
								}
								JOINT RightHandIndex1
								{
									OFFSET -21.310577 -0.490082 6.209344
									CHANNELS 3 Xrotation Yrotation Zrotation
									JOINT RightHandIndex2
									{
										OFFSET -7.536453 0.000000 0.000000
										CHANNELS 3 Xrotation Yrotation Zrotation
										JOINT RightHandIndex3
										{
											OFFSET -7.512344 0.000000 0.000000
											CHANNELS 3 Xrotation Yrotation Zrotation
											JOINT RightHandIndex4
											{
												OFFSET -10.212402 0.000000 0.000001
												CHANNELS 3 Xrotation Yrotation Zrotation
												End Site
												{
													OFFSET 5.180801 8.690506 1.388433
												}
											}
										}
									}
								}
								JOINT RightHandMiddle1
								{
									OFFSET -23.373947 0.000000 0.000001
									CHANNELS 3 Xrotation Yrotation Zrotation
									JOINT RightHandMiddle2
									{
										OFFSET -6.996567 0.000000 0.000000
										CHANNELS 3 Xrotation Yrotation Zrotation
										JOINT RightHandMiddle3
										{
											OFFSET -7.015945 0.000000 0.000000
											CHANNELS 3 Xrotation Yrotation Zrotation
											JOINT RightHandMiddle4
											{
												OFFSET -7.721573 0.000000 0.000000
												CHANNELS 3 Xrotation Yrotation Zrotation
												End Site
												{
													OFFSET 4.651108 6.158463 0.251582
												}
											}
										}
									}
								}
								JOINT RightHandRing1
								{
									OFFSET -22.726120 -0.094986 -6.500475
									CHANNELS 3 Xrotation Yrotation Zrotation
									JOINT RightHandRing2
									{
										OFFSET -6.408615 0.000000 0.000000
										CHANNELS 3 Xrotation Yrotation Zrotation
										JOINT RightHandRing3
										{
											OFFSET -6.150223 0.000000 0.000000
											CHANNELS 3 Xrotation Yrotation Zrotation
											JOINT RightHandRing4
											{
												OFFSET -6.145386 0.000000 0.000000
												CHANNELS 3 Xrotation Yrotation Zrotation
												End Site
												{
													OFFSET 3.671402 4.923981 -0.202372
												}
											}
										}
									}
								}
								JOINT RightHandPinky1
								{
									OFFSET -18.920792 -0.453171 -11.426712
									CHANNELS 3 Xrotation Yrotation Zrotation
									JOINT RightHandPinky2
									{
										OFFSET -4.919586 0.000000 0.000000
										CHANNELS 3 Xrotation Yrotation Zrotation
										JOINT RightHandPinky3
										{
											OFFSET -5.233047 0.000000 0.000000
											CHANNELS 3 Xrotation Yrotation Zrotation
											JOINT RightHandPinky4
											{
												OFFSET -5.571716 0.000000 0.000000
												CHANNELS 3 Xrotation Yrotation Zrotation
												End Site
												{
													OFFSET 3.459808 4.342407 -0.466164
												}
											}
										}
									}
								}
							}
						}
					}
				}
			}
		}
	}
	JOINT LeftUpLeg
	{
		OFFSET 19.899099 -7.885101 -3.429500
		CHANNELS 3 Xrotation Yrotation Zrotation
		JOINT LeftLeg
		{
			OFFSET 1.745560 -36.997807 10.304700
			CHANNELS 3 Xrotation Yrotation Zrotation
			JOINT LeftFoot
			{
				OFFSET -1.745558 -29.803308 -13.615400
				CHANNELS 3 Xrotation Yrotation Zrotation
				JOINT LeftToeBase
				{
					OFFSET 1.181900 -18.539904 15.226099
					CHANNELS 3 Xrotation Yrotation Zrotation
					JOINT LeftToe_End
					{
						OFFSET -0.863701 1.402801 16.534700
						CHANNELS 3 Xrotation Yrotation Zrotation
						End Site
						{
							OFFSET 0.000000 16.616566 0.000000
						}
					}
				}
			}
		}
	}
	JOINT RightUpLeg
	{
		OFFSET -19.899099 -7.885101 -3.429500
		CHANNELS 3 Xrotation Yrotation Zrotation
		JOINT RightLeg
		{
			OFFSET -1.745560 -36.997807 10.304700
			CHANNELS 3 Xrotation Yrotation Zrotation
			JOINT RightFoot
			{
				OFFSET 1.745558 -29.803308 -13.615400
				CHANNELS 3 Xrotation Yrotation Zrotation
				JOINT RightToeBase
				{
					OFFSET -1.181900 -18.539904 15.226099
					CHANNELS 3 Xrotation Yrotation Zrotation
					JOINT RightToe_End
					{
						OFFSET 0.863701 1.402801 16.534700
						CHANNELS 3 Xrotation Yrotation Zrotation
						End Site
						{
							OFFSET 0.000000 16.616566 0.000000
						}
					}
				}
			}
		}
	}
}
MOTION
Frames: 4
Frame Time: 0.033333
-1.372009 82.999924 1.757948 -6.097673 -43.148573 -3.809275 5.852361 4.736297 -1.470988 11.836836 9.036884 -3.085772 11.836840 9.036877 -3.085770 -4.303075 -1.272943 0.206308 -6.271926 20.437780 -0.377164 -0.000000 0.000000 -0.000000 1.392453 -0.696068 -7.877844 -14.260103 2.394335 -63.277106 9.865068 -47.524890 5.927917 16.172877 0.915182 18.795455 9.163524 4.814166 -5.499026 -0.335412 0.032537 0.783715 0.000003 0.000004 -0.000001 0.000000 -0.000002 -0.000004 4.170629 18.494988 -34.987320 -0.695662 -5.793099 -39.371809 0.000002 0.000004 -0.000002 0.000006 0.000000 -0.000002 2.605914 14.896798 -31.345254 -0.596215 -2.712522 -32.011789 0.000002 -0.000001 0.000000 -0.000001 0.000001 0.000003 1.938054 9.685604 -14.538102 -0.439888 -1.568303 -21.880905 0.000009 -0.000006 0.000006 -0.000003 -0.000003 0.000004 -0.915848 -6.978958 -3.808523 0.019095 0.808909 -16.418776 -0.000008 -0.000001 -0.000003 -0.000002 0.000001 -0.000001 1.410919 9.461496 9.792742 1.220044 -24.270712 60.532907 -6.660687 41.858415 8.043827 6.225241 12.322331 11.673240 -8.895730 -4.903252 -0.383666 7.899149 -19.194049 -2.869837 0.000009 -0.000001 -0.000004 0.000002 -0.000001 0.000002 -1.075533 -1.203144 4.524362 0.134644 -1.112074 16.941941 -0.000006 -0.000001 0.000012 -0.000000 -0.000003 -0.000001 -0.676292 -2.894536 12.730327 -0.646107 1.811864 30.593281 0.000001 -0.000004 -0.000011 0.000000 -0.000001 -0.000001 2.434700 -7.401056 21.764345 -1.006242 3.771359 37.433856 -0.000002 0.000000 0.000008 -0.000000 0.000001 -0.000003 3.480962 -10.055084 24.322433 -1.469841 7.888183 41.104427 -0.000000 0.000007 -0.000006 0.000002 0.000000 0.000004 -31.855384 4.058463 14.764910 34.104326 -14.037721 -0.093578 0.288020 0.952867 -10.215957 -2.319081 -3.217002 0.802950 0.000000 -0.000000 0.000000 6.018911 -14.289778 -20.272070 31.111419 -4.449416 1.547618 -27.403294 -9.190679 21.577973 -1.784967 -0.356711 0.340822 -0.000000 0.000001 0.000000 
-1.416375 82.456726 0.894025 -6.355425 -43.500724 -3.637365 5.852082 4.527873 -1.495043 11.816339 8.604105 -2.999924 11.816340 8.604099 -2.999926 -3.994305 -0.885629 0.114175 -6.393211 21.000535 -0.776895 0.000000 0.000000 -0.000001 1.458360 -1.102610 -7.672531 -14.115342 2.988384 -62.491334 9.380256 -47.055950 5.596276 16.086608 0.584019 18.755788 8.785815 4.226675 -5.551988 -0.335413 0.032539 0.783714 0.000004 0.000000 -0.000002 0.000002 -0.000004 -0.000001 4.052017 18.333222 -34.587863 -0.686096 -5.781899 -38.696884 -0.000000 -0.000001 0.000003 -0.000000 -0.000003 0.000001 2.476139 14.785003 -30.842805 -0.578302 -2.689818 -31.554453 -0.000001 -0.000004 0.000000 -0.000002 -0.000003 0.000005 1.852993 9.434043 -14.385557 -0.419779 -1.510047 -21.312166 0.000007 -0.000006 0.000006 -0.000006 -0.000001 0.000004 -0.913296 -6.964352 -3.646733 0.034476 0.858559 -15.989469 0.000001 -0.000004 -0.000001 -0.000002 0.000001 0.000001 1.447352 9.871979 9.823835 -0.581301 -23.153914 58.523294 -5.901983 41.109437 7.496549 6.908245 11.890129 11.213772 -9.112896 -5.092455 -0.559570 7.902031 -19.199812 -2.869442 0.000007 -0.000001 -0.000006 -0.000001 -0.000002 0.000001 -1.090263 -1.123129 5.563802 0.120898 -1.067201 17.407046 -0.000005 -0.000001 0.000012 -0.000001 -0.000001 0.000001 -0.691256 -2.830228 13.553522 -0.646093 1.811864 30.593264 0.000000 -0.000001 -0.000009 0.000001 0.000001 -0.000009 2.403338 -7.326904 22.582928 -1.006243 3.771358 37.433828 0.000001 -0.000001 0.000008 0.000002 0.000002 -0.000001 3.441485 -9.975528 25.137176 -1.469833 7.888168 41.104430 0.000000 0.000007 -0.000002 0.000001 0.000002 0.000004 -32.262183 3.823257 15.127272 34.362125 -13.842313 -0.112795 0.613463 0.971738 -10.958860 -2.319086 -3.216979 0.802953 0.000000 0.000000 0.000000 4.408840 -14.218015 -20.722125 33.784134 -3.558551 1.654146 -28.837134 -9.153416 20.732737 -1.784969 -0.356725 0.340828 -0.000000 -0.000000 -0.000000 
-1.462890 81.929802 0.106059 -6.630786 -44.062268 -3.576014 5.857170 4.372929 -1.508691 11.811954 8.286027 -2.924545 11.811957 8.286020 -2.924544 -3.610597 -0.511280 0.042723 -6.682600 21.615279 -1.260746 0.000001 0.000000 -0.000000 1.519458 -1.504587 -7.424638 -13.971952 3.568717 -61.767320 9.067201 -46.595557 5.413455 16.172771 0.352075 18.724503 8.375827 3.584971 -5.618383 -0.335412 0.032543 0.783713 0.000003 -0.000000 -0.000003 -0.000002 -0.000004 0.000002 3.931045 18.165984 -34.165436 -0.676560 -5.770165 -37.995799 0.000007 -0.000000 0.000004 -0.000003 0.000004 -0.000002 2.351553 14.680645 -30.324961 -0.559455 -2.665463 -31.064646 0.000001 -0.000007 -0.000004 -0.000003 -0.000001 0.000003 1.770452 9.189623 -14.231464 -0.398430 -1.446529 -20.694123 0.000008 0.000002 0.000005 -0.000001 0.000000 0.000004 -0.908875 -6.938320 -3.471244 0.051168 0.912280 -15.524986 -0.000000 -0.000001 -0.000001 0.000001 -0.000000 0.000001 1.485549 10.322260 9.887905 -2.488167 -21.967734 56.478670 -5.178376 40.315892 6.968833 7.604262 11.458851 10.694083 -9.337622 -5.329901 -0.758301 7.912570 -19.220869 -2.867983 0.000009 -0.000000 -0.000005 -0.000001 -0.000001 0.000001 -1.105861 -1.033957 6.733694 0.105886 -1.017594 17.922884 -0.000005 0.000003 0.000013 -0.000000 0.000003 -0.000001 -0.708938 -2.758114 14.486660 -0.646098 1.811858 30.593278 0.000001 -0.000002 -0.000009 -0.000000 0.000001 -0.000001 2.366484 -7.243942 23.511010 -1.006243 3.771357 37.433832 -0.000001 0.000000 0.000008 -0.000000 -0.000001 -0.000002 3.395871 -9.885462 26.061178 -1.469832 7.888178 41.104410 -0.000001 0.000004 0.000006 0.000002 -0.000000 0.000006 -32.549854 3.555515 15.644039 34.741183 -13.512455 -0.141971 0.726998 1.017002 -11.718579 -2.319080 -3.216986 0.802954 0.000000 -0.000001 0.000000 2.780065 -14.152479 -21.139569 36.232193 -2.500126 1.759079 -30.108642 -9.002903 19.774854 -1.784970 -0.356728 0.340819 -0.000000 0.000001 0.000000 
-1.508110 81.401253 -0.679433 -7.023399 -44.716764 -3.604360 5.886205 4.247373 -1.522343 11.859000 8.028997 -2.869017 11.858997 8.029009 -2.869016 -3.205893 -0.138881 -0.039369 -6.927893 22.178642 -1.684369 -0.000000 -0.000000 -0.000000 1.587852 -1.927479 -7.232954 -13.879818 4.087222 -60.995953 8.683967 -46.069264 5.162746 16.188324 0.156235 18.848657 7.936798 2.894533 -5.699430 -0.335416 0.032542 0.783711 0.000003 0.000002 -0.000001 0.000003 0.000001 -0.000002 3.808764 17.993503 -33.722399 -0.666697 -5.757906 -37.270908 0.000004 -0.000000 -0.000000 -0.000002 0.000001 -0.000000 2.232009 14.582841 -29.793080 -0.541256 -2.639113 -30.545497 0.000004 -0.000008 0.000003 -0.000003 0.000001 0.000005 1.690492 8.951514 -14.075849 -0.376085 -1.378124 -20.031444 0.000005 -0.000001 0.000007 -0.000001 0.000002 0.000004 -0.903028 -6.903703 -3.283148 0.069058 0.969637 -15.028573 0.000002 0.000000 0.000002 -0.000002 -0.000001 0.000003 1.522052 10.837046 10.071968 -4.473432 -20.765679 54.588040 -4.504364 39.460725 6.310757 8.337216 10.902106 10.258341 -9.568330 -5.603728 -0.975595 7.928274 -19.252244 -2.865747 0.000007 -0.000003 -0.000008 0.000001 -0.000001 -0.000003 -1.121658 -0.937855 8.004589 0.089057 -0.964253 18.478582 -0.000006 0.000001 0.000010 -0.000000 -0.000003 -0.000001 -0.729142 -2.680306 15.504724 -0.646101 1.811856 30.593278 0.000000 -0.000005 -0.000014 0.000002 0.000001 -0.000004 2.324661 -7.154612 24.523408 -1.006254 3.771354 37.433876 -0.000003 -0.000002 0.000008 0.000001 -0.000000 -0.000002 3.344701 -9.787550 27.068871 -1.469842 7.888188 41.104423 -0.000000 0.000009 0.000002 0.000002 -0.000000 0.000006 -32.696075 3.300546 16.216244 35.136966 -13.143244 -0.177599 0.779643 1.077788 -12.504597 -2.319084 -3.216996 0.802959 -0.000000 -0.000001 -0.000000 1.189346 -14.077022 -21.565148 38.624354 -1.373607 1.862446 -31.326673 -8.780381 18.728490 -1.784966 -0.356717 0.340819 -0.000000 0.000002 0.000000 
